<?xml version="1.0" standalone="no"?><!DOCTYPE svg PUBLIC "-//W3C//DTD SVG 1.1//EN" "http://www.w3.org/Graphics/SVG/1.1/DTD/svg11.dtd"><svg t="1616165511522" class="icon" viewBox="0 0 1024 1024" version="1.1" xmlns="http://www.w3.org/2000/svg" p-id="6476" width="16" height="16" xmlns:xlink="http://www.w3.org/1999/xlink"><defs><style type="text/css"></style></defs><path d="M518.729834 943.931975 696.300844 766.009538 785.08634 677.04832C798.862248 663.245135 798.840143 640.887879 785.036977 627.111971 771.23381 613.336064 748.876535 613.358168 735.100628 627.161335L646.315132 716.122553 468.744121 894.045007C416.256759 946.636253 340.314748 965.62319 270.210578 945.61197 251.458225 940.259116 231.917109 951.121549 226.564273 969.873902 221.211418 988.626238 232.073852 1008.167353 250.826187 1013.520207 345.375938 1040.509405 447.933987 1014.867933 518.729834 943.931975ZM876.674119 112.055031C931.847804 167.337913 931.874022 256.895947 876.712095 312.167053L763.937086 425.165259C750.161178 438.968426 750.183283 461.325683 763.98645 475.10159 777.789617 488.877497 800.146891 488.855411 813.922798 475.052226L926.697807 362.054038C1009.379575 279.208607 1009.340275 145.012153 926.659831 62.168064 843.946531-20.708935 709.859028-20.723747 627.168927 62.130017 613.39302 75.933184 613.415124 98.290441 627.218291 112.066348 641.021458 125.842255 663.378732 125.820169 677.154639 112.016984 732.25193 56.810655 821.548685 56.820524 876.674119 112.055031ZM182.829233 894.022056C103.840309 814.876813 103.844387 686.461881 182.806334 607.343651L468.371738 321.213087 677.154639 112.016984C690.930547 98.213817 690.908442 75.856561 677.105276 62.080653 663.302091 48.304728 640.944834 48.326833 627.168927 62.130017L418.386026 271.326102 132.820639 557.456684C26.346072 664.141965 26.340582 837.195317 132.84352 943.909041 166.073044 977.204312 206.565641 1000.886042 250.826187 1013.520207 269.578522 1018.873044 289.119638 1008.010628 294.472492 989.258275 299.825346 970.50594 288.962913 950.964824 270.210578 945.61197 237.449198 936.260255 207.507403 918.74906 182.829233 894.022056ZM401.173292 561.647086 457.56356 505.14522 513.953827 448.643354C527.729735 434.840188 527.70763 412.482931 513.904463 398.707023 500.101279 384.931116 477.744022 384.953203 463.968115 398.756387L407.577847 455.258253 351.18758 511.760119 238.407062 624.763851C224.631155 638.567018 224.653259 660.924275 238.456426 674.700182 252.259593 688.476107 274.616867 688.454003 288.392775 674.650818L401.173292 561.647086ZM401.569898 788.2496C370.352587 819.528686 319.611374 819.505099 288.405186 788.237153 257.130531 756.900617 257.140771 705.964668 288.392775 674.650818 302.168682 660.847651 302.146578 638.490394 288.343411 624.714487 274.540226 610.93858 252.182969 610.960666 238.407062 624.763851 179.646234 683.640956 179.627043 779.215342 238.419474 838.124138 297.205619 897.026613 392.737562 897.071033 451.55561 838.136585L825.895194 463.056137C839.671102 449.252952 839.649015 426.895695 825.845831 413.119788 812.042664 399.343881 789.685407 399.365985 775.909482 413.169152L401.569898 788.2496Z" p-id="6477"></path></svg>