<svg width="48" height="52" xmlns="http://www.w3.org/2000/svg"><g fill="none" fill-rule="evenodd"><path d="M16 12h27v1H16zm0 14h27v1H16zm0 14h27v1H16z" fill="#767C85"/><path fill="#3D4757" d="M5.303 13H12l-7.441 3.988z"/><path d="M4.078 7.922l9.052 4.948-9.144 5.116L5.1 12.944 4.078 7.922zm6.985 4.958L5.488 9.832l.634 3.12-.68 3.072 5.621-3.144z" fill="#767C85" fill-rule="nonzero"/><path fill="#3D4757" d="M5.311 26H12l-7.441 3.988z"/><path d="M4.078 20.922l9.052 4.948-9.144 5.116L5.1 25.944l-1.022-5.022zm6.985 4.958l-5.575-3.048.634 3.12-.68 3.072 5.621-3.144z" fill="#767C85" fill-rule="nonzero"/><path fill="#3D4757" d="M5.382 40H12l-7.441 3.988z"/><path d="M4.078 34.922l9.052 4.948-9.144 5.116L5.1 39.944l-1.022-5.022zm6.985 4.958l-5.575-3.048.634 3.12-.68 3.072 5.621-3.144z" fill="#767C85" fill-rule="nonzero"/></g></svg>