<svg t="1617440908931" class="icon" viewBox="0 0 1024 1024" version="1.1" xmlns="http://www.w3.org/2000/svg" p-id="7006" width="26" height="26"><path d="M213.333333 384C187.733333 384 170.666667 366.933333 170.666667 341.333333c0-166.4 132.266667-298.666667 298.666667-298.666667 128 0 243.2 85.333333 285.866667 209.066667C759.466667 273.066667 750.933333 298.666667 725.333333 302.933333c-21.333333 8.533333-46.933333-4.266667-55.466667-25.6C644.266667 187.733333 563.2 128 469.333333 128 349.866667 128 256 221.866667 256 341.333333 256 366.933333 238.933333 384 213.333333 384z" p-id="7007" fill="#979797"></path><path d="M768 725.333333c-25.6 0-42.666667-17.066667-42.666667-42.666667s17.066667-42.666667 42.666667-42.666667c93.866667 0 170.666667-76.8 170.666667-170.666667s-76.8-170.666667-170.666667-170.666667c-12.8 0-29.866667 0-42.666667 4.266667-21.333333 4.266667-46.933333-8.533333-51.2-29.866667-4.266667-21.333333 8.533333-46.933333 29.866667-51.2C725.333333 217.6 746.666667 213.333333 768 213.333333c140.8 0 256 115.2 256 256S908.8 725.333333 768 725.333333z" p-id="7008" fill="#979797"></path><path d="M341.333333 725.333333 213.333333 725.333333c-25.6 0-42.666667-17.066667-42.666667-42.666667s17.066667-42.666667 42.666667-42.666667l128 0c25.6 0 42.666667 17.066667 42.666667 42.666667S366.933333 725.333333 341.333333 725.333333z" p-id="7009" fill="#979797"></path><path d="M768 725.333333l-85.333333 0c-25.6 0-42.666667-17.066667-42.666667-42.666667s17.066667-42.666667 42.666667-42.666667l85.333333 0c25.6 0 42.666667 17.066667 42.666667 42.666667S793.6 725.333333 768 725.333333z" p-id="7010" fill="#979797"></path><path d="M213.333333 725.333333c-119.466667 0-213.333333-93.866667-213.333333-213.333333s93.866667-213.333333 213.333333-213.333333c25.6 0 42.666667 17.066667 42.666667 42.666667S238.933333 384 213.333333 384c-72.533333 0-128 55.466667-128 128s55.466667 128 128 128c25.6 0 42.666667 17.066667 42.666667 42.666667S238.933333 725.333333 213.333333 725.333333z" p-id="7011" fill="#979797"></path><path d="M512 981.333333c-25.6 0-42.666667-17.066667-42.666667-42.666667l0-384c0-25.6 17.066667-42.666667 42.666667-42.666667s42.666667 17.066667 42.666667 42.666667l0 384C554.666667 964.266667 537.6 981.333333 512 981.333333z" p-id="7012" fill="#979797"></path><path d="M512 981.333333c-12.8 0-21.333333-4.266667-29.866667-12.8-17.066667-17.066667-17.066667-42.666667 0-59.733333l128-128c17.066667-17.066667 42.666667-17.066667 59.733333 0s17.066667 42.666667 0 59.733333l-128 128C533.333333 977.066667 524.8 981.333333 512 981.333333z" p-id="7013" fill="#979797"></path><path d="M512 981.333333c-12.8 0-21.333333-4.266667-29.866667-12.8l-128-128c-17.066667-17.066667-17.066667-42.666667 0-59.733333s42.666667-17.066667 59.733333 0l128 128c17.066667 17.066667 17.066667 42.666667 0 59.733333C533.333333 977.066667 524.8 981.333333 512 981.333333z" p-id="7014" fill="#979797"></path></svg>