<svg t="1617446898740" class="icon" viewBox="0 0 1024 1024" version="1.1" xmlns="http://www.w3.org/2000/svg"
     p-id="15480" width="26" height="26">
    <path d="M136.2 513.8v366.7c0 26.4 23.4 47.8 52.4 47.8h261.8c28.9 0 52.4-21.4 52.4-47.8s-23.4-47.8-52.4-47.8H241V194.8h209.5c28.9 0 52.4-21.4 52.4-47.8s-23.4-47.8-52.4-47.8H188.6c-28.9 0-52.4 21.4-52.4 47.8v366.8z m757.5-34.6c10.1 8.8 16.4 21.5 16.4 35.6 0 14.2-6.3 26.8-16.4 35.6L728.3 693.8c-8.8 7.6-20.5 12.3-33.2 12.3-27.4 0-49.6-21.5-49.6-47.9 0-14.1 6.4-26.8 16.5-35.5l69.3-60.1h-301c-27.4 0-49.6-21.4-49.6-47.8s22.2-47.8 49.6-47.8h300.8l-69.3-60.1c-10.1-8.7-16.5-21.5-16.5-35.6 0-26.4 22.3-47.8 49.6-47.8 12.8 0 24.4 4.6 33.2 12.3l165.6 143.4z"
          p-id="15481" fill="#979797"></path>
</svg>