<svg width="48" height="52" xmlns="http://www.w3.org/2000/svg"><g fill="none" fill-rule="evenodd"><g fill-rule="nonzero"><path d="M7 40h1v1H7v-1zm3 0h1v2h-1v-2zm0 3h1v2h-1v-2zm-3 1h1v1H7v-1zm1-5h2v1H8v-1zm0 6h2v1H8v-1zm0-3h2v1H8v-1z" fill="#3D4757"/><path fill="#767C85" d="M17 10h25v1H17z"/><path fill="#3D4757" d="M9 9H8V8h1V7h1v6H9z"/><path d="M9 15A5 5 0 1 0 9 5a5 5 0 0 0 0 10zm0 1A6 6 0 1 1 9 4a6 6 0 0 1 0 12zm0 15a5 5 0 1 0 0-10 5 5 0 0 0 0 10zm0 1a6 6 0 1 1 0-12 6 6 0 0 1 0 12zm0 15a5 5 0 1 0 0-10 5 5 0 0 0 0 10zm0 1a6 6 0 1 1 0-12 6 6 0 0 1 0 12z" fill="#3D4757"/><path d="M7 28v-1h1v1h3v1H7v-1zm0-4h1v1H7v-1zm3 0h1v2h-1v-2zm-2-1h2v1H8v-1zm0 3h2v1H8v-1z" fill="#3D4757"/></g><path d="M17 26h25v1H17zm0 16h25v1H17z" fill="#767C85"/></g></svg>