<svg width="48" height="52" xmlns="http://www.w3.org/2000/svg"><g fill="none" fill-rule="evenodd"><path fill="#767C85" d="M17 10h25v1H17z"/><path d="M9 6v8H8V8H7V7h1V6h1zm4 7v1h-1v-1h1z" fill="#3D4757"/><path fill="#767C85" d="M17 26h25v1H17z"/><path d="M7 28v1h4v1H6v-2h1zm6 1v1h-1v-1h1zm-3-2v1H7v-1h3zm1-3v3h-1v-3h1zm-4 0v1H6v-1h1zm3-1v1H7v-1h3z" fill="#3D4757"/><path fill="#767C85" d="M17 42h25v1H17z"/><path d="M13 45v1h-1v-1h1zm-3 0v1H7v-1h3zm1-2v2h-1v-2h1zm-4 1v1H6v-1h1zm3-2v1H7v-1h3zm1-3v3h-1v-3h1zm-4 0v1H6v-1h1zm3-1v1H7v-1h3z" fill="#3D4757"/></g></svg>