<svg width="48" height="52" xmlns="http://www.w3.org/2000/svg"><g fill="none" fill-rule="evenodd"><path fill="#767C85" d="M19 10h23v1H19z"/><path d="M14 13h1v1h-1zm1-1h1v1h-1zm0-5h1v1h-1zm-1-1h1v1h-1zm2 2h1v4h-1zm-9 5H6v1h1zm-1-1H5v1h1zm0-5H5v1h1zm1-1H6v1h1zM5 8H4v4h1z" fill="#3D4757"/><path fill="#767C85" d="M19 26h23v1H19z"/><path d="M14 29h1v1h-1zm1-1h1v1h-1zm0-5h1v1h-1zm-1-1h1v1h-1zm2 2h1v4h-1zm-9 5H6v1h1zm-1-1H5v1h1zm0-5H5v1h1zm1-1H6v1h1zm-2 2H4v4h1z" fill="#3D4757"/><path fill="#767C85" d="M19 42h23v1H19z"/><path d="M14 45h1v1h-1zm1-1h1v1h-1zm0-5h1v1h-1zm-1-1h1v1h-1zm2 2h1v4h-1zm-9 5H6v1h1zm-1-1H5v1h1zm0-5H5v1h1zm1-1H6v1h1zm-2 2H4v4h1zm6-34v8h-1V8H9V7h1V6h1zM8 28h1v1h4v1H8v-2zm4-1v1H9v-1h3zm1-3v3h-1v-3h1zm-4 0v1H8v-1h1zm3-1v1H9v-1h3zm0 22v1H9v-1h3zm1-2v2h-1v-2h1zm-4 1v1H8v-1h1zm3-2v1H9v-1h3zm1-3v3h-1v-3h1zm-4 0v1H8v-1h1zm3-1v1H9v-1h3z" fill="#3D4757"/></g></svg>