<svg t="1617439525676" class="icon" viewBox="0 0 1024 1024" version="1.1" xmlns="http://www.w3.org/2000/svg" p-id="3790"
     width="26" height="26" data-spm-anchor-id="a313x.7781069.0.i3">
    <path d="M925.8 926.4L731.7 732.3c68-71.9 105.4-165.5 105.4-264.9 0-103.1-40.1-200-113-272.9-72.9-72.9-169.8-113-272.9-113s-200 40.1-272.9 113c-72.9 72.9-113 169.8-113 272.9s40.1 200 113 272.9c72.9 72.9 169.8 113 272.9 113 91 0 177.2-31.3 246.3-88.8l195.1 195.1 33.2-33.2zM211.6 707.1c-64-64-99.3-149.1-99.3-239.7s35.2-175.6 99.3-239.7 149.1-99.3 239.7-99.3 175.6 35.3 239.7 99.3 99.3 149.1 99.3 239.7-35.4 175.6-99.4 239.7-149.1 99.3-239.7 99.3-175.6-35.3-239.6-99.3z"
          p-id="3791" data-spm-anchor-id="a313x.7781069.0.i6" class="selected" fill="#979797"></path>
    <path d="M474.7 256.1h-46.9v187.8H239.9v47h187.9v187.9h46.9V490.9h187.9v-47H474.7z" p-id="3792"
          data-spm-anchor-id="a313x.7781069.0.i2" class="selected" fill="#979797"></path>
</svg>