<?xml version="1.0" standalone="no"?><!DOCTYPE svg PUBLIC "-//W3C//DTD SVG 1.1//EN" "http://www.w3.org/Graphics/SVG/1.1/DTD/svg11.dtd"><svg t="1616165131132" class="icon" viewBox="0 0 1024 1024" version="1.1" xmlns="http://www.w3.org/2000/svg" p-id="1731" width="16" height="16" xmlns:xlink="http://www.w3.org/1999/xlink"><defs><style type="text/css"></style></defs><path d="M872.369231 128c-177.230769 0-313.107692 137.846154-313.107693 315.076923V866.461538c0 15.753846 13.784615 29.538462 29.538462 29.538462h334.769231c15.753846 0 29.538462-13.784615 29.538461-29.538462V531.692308c0-15.753846-13.784615-29.538462-29.538461-29.538462H677.415385v-59.076923c0-98.461538 96.492308-196.923077 194.953846-196.923077h51.2c15.753846 0 29.538462-13.784615 29.538461-29.538461V157.538462c0-15.753846-13.784615-29.538462-29.538461-29.538462h-51.2z m-488.369231 0c-177.230769 0-313.107692 137.846154-313.107692 315.076923V866.461538c0 15.753846 13.784615 29.538462 29.538461 29.538462h334.769231c15.753846 0 29.538462-13.784615 29.538462-29.538462V531.692308c0-15.753846-13.784615-29.538462-29.538462-29.538462H189.046154v-59.076923c0-98.461538 96.492308-196.923077 194.953846-196.923077h51.2c15.753846 0 29.538462-13.784615 29.538462-29.538461V157.538462c0-15.753846-13.784615-29.538462-29.538462-29.538462h-51.2z" p-id="1732" fill="#3D4757"></path></svg>