<svg width="48" height="52" xmlns="http://www.w3.org/2000/svg"><g fill="none" fill-rule="evenodd"><path fill="#767C85" d="M17 10h25v1H17z"/><path d="M12 13h1v1h-1zm1-1h1v1h-1zm0-5h1v1h-1zm-1-1h1v1h-1zm2 2h1v4h-1z" fill="#3D4757"/><path fill="#767C85" d="M17 26h25v1H17z"/><path d="M12 29h1v1h-1zm1-1h1v1h-1zm0-5h1v1h-1zm-1-1h1v1h-1zm2 2h1v4h-1z" fill="#3D4757"/><path fill="#767C85" d="M17 42h25v1H17z"/><path d="M12 45h1v1h-1zm1-1h1v1h-1zm0-5h1v1h-1zm-1-1h1v1h-1zm2 2h1v4h-1zM9 6v8H8V8H7V7h1V6h1zM6 28h1v1h4v1H6v-2zm4-1v1H7v-1h3zm1-3v3h-1v-3h1zm-4 0v1H6v-1h1zm3-1v1H7v-1h3zm0 22v1H7v-1h3zm1-2v2h-1v-2h1zm-4 1v1H6v-1h1zm3-2v1H7v-1h3zm1-3v3h-1v-3h1zm-4 0v1H6v-1h1zm3-1v1H7v-1h3z" fill="#3D4757"/></g></svg>