<svg t="1617441408655" class="icon" viewBox="0 0 1024 1024" version="1.1" xmlns="http://www.w3.org/2000/svg" p-id="12809" width="26" height="26"><path d="M371.206344 319.998307v-128.002935c0-21.204979-17.196985-38.392933-38.40377-38.392934-21.215816 0-38.401964 17.187954-38.401964 38.392934v102.405238h-102.394401c-21.215816 0-38.40377 17.187954-38.403771 38.392933 0 21.215816 17.187954 38.401964 38.403771 38.401964h127.992098c28.276316 0 51.208038-22.919078 51.208037-51.1972zM371.206344 703.999887v127.993904c0 21.215816-17.196985 38.40377-38.40377 38.403771-21.215816 0-38.401964-17.187954-38.401964-38.403771v-102.394401h-102.394401c-21.215816 0-38.40377-17.187954-38.403771-38.405576 0-21.203173 17.187954-38.401964 38.403771-38.401965h127.992098c28.276316 0 51.208038 22.929916 51.208037 51.208038zM652.800881 703.999887v127.993904c0 21.215816 17.187954 38.40377 38.40377 38.403771 21.206785 0 38.392933-17.187954 38.392933-38.403771v-102.394401h102.405238c21.204979 0 38.40377-17.187954 38.403771-38.405576 0-21.203173-17.196985-38.401964-38.403771-38.401965h-128.002935c-28.278122 0-51.199007 22.929916-51.199006 51.208038zM652.800881 319.998307v-128.002935c0-21.204979 17.187954-38.392933 38.40377-38.392934 21.206785 0 38.392933 17.187954 38.392933 38.392934v102.405238h102.405238c21.204979 0 38.40377 17.187954 38.403771 38.392933 0 21.215816-17.196985 38.401964-38.403771 38.401964h-128.002935c-28.278122 0-51.199007-22.919078-51.199006-51.1972z" fill="#979797" p-id="12810"></path><path d="M0 921.59115V102.394401C0 45.838157 45.848994 0 102.405238 0H921.603793c56.554438 0 102.394401 45.838157 102.394401 102.394401v819.198555c0 56.556244-45.839963 102.407044-102.394401 102.407044H102.405238C45.848994 1023.998194 0 978.147394 0 921.59115zM921.603793 76.796704H102.405238c-18.109124 0-25.599503 7.49941-25.599503 25.597697v819.198555c0 18.109124 7.490379 25.610341 25.599503 25.61034h844.796252V102.394401c0-18.098287-7.49941-25.597697-25.597697-25.597697z" fill="#979797" p-id="12811"></path></svg>