<svg version="1.1" id="图层_1" xmlns="http://www.w3.org/2000/svg" x="0" y="0" viewBox="0 0 16 16" xml:space="preserve"><style>.st0{fill:#3d4757}</style><g id="_x30_0-公共_x2F_02工具栏_x2F_font_x5F_attr"><path id="A复制" class="st0" d="M6.3 3h1.4L12 14h-1.4l-1.2-2.9h-5L3.3 14H2L6.3 3zm-1.5 7H9L7.1 4.4H7L4.8 10z"/><path id="i" class="st0" d="M13.9 7.9c.1-.1.1 0 .1.1 0 0-.1.3-.3.5-.3.3-.6.5-1 .5-.3 0-.5-.2-.5-.5 0-.1.1-.6.2-1.3l.2-1.4.1-.4v-.6c0-.2-.1-.3-.2-.3-.2 0-.3.2-.4.3 0 .2-.1.2-.1.1 0 0 0-.2.2-.4.3-.2.8-.5 1-.5.3 0 .5.2.5.5v.7s0 .2-.1.4l-.2 1.5-.1.3c0 .3-.1.5-.1.6 0 .1.1.2.2.2.3.1.4-.2.5-.3z"/><path id="矩形" class="st0" d="M13.5 2c.3 0 .5.2.5.5s-.2.5-.5.5-.5-.2-.5-.5.2-.5.5-.5z"/></g></svg>