<?xml version="1.0" standalone="no"?><!DOCTYPE svg PUBLIC "-//W3C//DTD SVG 1.1//EN" "http://www.w3.org/Graphics/SVG/1.1/DTD/svg11.dtd"><svg t="1616165273313" class="icon" viewBox="0 0 1036 1024" version="1.1" xmlns="http://www.w3.org/2000/svg" p-id="2619" width="16.1875" height="16" xmlns:xlink="http://www.w3.org/1999/xlink"><defs><style type="text/css"></style></defs><path d="M511.996625 1023.993251a511.514519 511.514519 0 1 1 465.232339-297.941539 36.157954 36.157954 0 0 1-48.210605 17.837923 36.64006 36.64006 0 0 1-17.837924-48.210605 439.680718 439.680718 0 1 0-399.665916 255.998313 443.537566 443.537566 0 0 0 152.827618-26.997939 574.188306 574.188306 0 0 0 53.031666-23.623196 430.520703 430.520703 0 0 1 113.777027-40.496908 213.57298 213.57298 0 0 1 188.985572 65.084316 36.157954 36.157954 0 1 1-45.317969 55.924302c-51.585347-41.943226-78.10118-57.852726-132.097057-48.210605a381.345886 381.345886 0 0 0-96.42121 34.711636 637.344198 637.344198 0 0 1-58.816938 25.55162 507.175565 507.175565 0 0 1-175.486603 30.372682z" fill="#3D4757" p-id="2620"></path><path d="M519.228216 418.468052A120.526513 120.526513 0 1 1 604.078881 385.68484a120.044406 120.044406 0 0 1-84.850665 32.783212zM578.52726 357.722689z m-59.299044-107.509649a48.210605 48.210605 0 1 0 33.747424 13.981075 48.210605 48.210605 0 0 0-33.747424-13.981075zM732.801196 632.041032a120.044406 120.044406 0 0 1-84.850665-204.895072A120.044406 120.044406 0 0 1 819.580285 596.84729a118.115982 118.115982 0 0 1-86.779089 35.193742z m0-167.772906a48.210605 48.210605 0 1 0 33.747424 13.981076 48.210605 48.210605 0 0 0-33.747424-13.981076zM305.655236 632.041032A112.812816 112.812816 0 0 1 274.800449 626.737865a120.044406 120.044406 0 1 1 147.042345-84.850665 120.526513 120.526513 0 0 1-116.187558 90.153832z m0-167.772906a48.210605 48.210605 0 0 0-12.052651 94.01068 48.210605 48.210605 0 0 0 58.334832-33.747423 48.210605 48.210605 0 0 0-33.747424-58.816939 52.549559 52.549559 0 0 0-12.534757-1.446318zM385.68484 533.691398zM519.228216 846.096118A119.080194 119.080194 0 0 1 433.895445 810.902376a120.044406 120.044406 0 1 1 169.70133 0 119.080194 119.080194 0 0 1-84.368559 35.193742z m0-168.255011a48.210605 48.210605 0 0 0-33.747424 81.958028 48.210605 48.210605 0 0 0 67.494848 0 48.210605 48.210605 0 0 0 0-67.976953 48.210605 48.210605 0 0 0-33.747424-13.981075z" fill="#3D4757" p-id="2621"></path></svg>